<svg width="249" height="50" viewBox="0 0 249 50" fill="none" xmlns="http://www.w3.org/2000/svg">
<g opacity="0.16" clip-path="url(#clip0_124_40778)">
<path d="M83.0188 15.8701C84.9383 16.0106 86.5191 17.2184 88.1846 18.0892C90.4993 19.2971 92.9269 19.8308 95.4392 20.3364C99.2218 21.0948 101.48 23.3139 102.891 26.3476C102.976 26.2634 103.089 26.2072 103.174 26.151C104.19 25.5049 105.065 24.9151 106.222 24.5218C108.452 23.7634 110.908 23.9881 113.195 24.4094C117.175 25.1398 121.72 29.3533 125.897 28.2016C125.982 28.1735 126.067 28.1735 126.151 28.2016C122.566 31.3196 117.485 28.5387 113.279 28.2578C112.602 28.2016 111.924 28.2297 111.275 28.2858C110.626 28.2578 109.948 28.2858 109.271 28.3982C108.452 28.5106 107.747 28.8757 107.041 29.269C105.601 29.8308 104.246 30.5611 102.948 31.4038C101.791 31.6005 100.52 30.7016 100.21 29.6061C100.125 29.2409 100.04 28.8757 99.8992 28.5106C99.4193 26.7409 98.7983 25.1398 96.8788 24.269C96.4272 24.0724 95.9755 23.9319 95.4956 23.7915C94.8182 23.4263 94.1125 23.0892 93.4068 22.7802C89.4831 21.0667 84.9383 19.6623 82.8777 15.8701C82.9341 15.8701 82.9624 15.8701 83.0188 15.8701Z" fill="#341605"/>
<path d="M130.837 44.7753C131.797 44.6068 132.757 45.0001 133.66 45.1967C134.959 45.5057 136.229 45.4495 137.555 45.3933C139.531 45.281 140.915 46.0956 142.016 47.4158C142.044 47.3596 142.072 47.3034 142.128 47.2753C142.552 46.8259 142.919 46.4046 143.427 46.0956C144.443 45.4214 145.685 45.2248 146.871 45.1405C148.931 45.0001 151.726 46.5169 153.646 45.3933C153.674 45.3652 153.702 45.3652 153.758 45.3652C152.375 47.3596 149.496 46.6293 147.379 47.0225C147.04 47.0787 146.701 47.1911 146.391 47.2753C146.052 47.3596 145.742 47.4439 145.403 47.5843C145.008 47.7529 144.697 48.0057 144.415 48.3147C143.794 48.7641 143.201 49.2978 142.665 49.8877C142.1 50.1405 141.366 49.8596 141.084 49.354C140.999 49.1574 140.915 48.9888 140.802 48.8484C140.35 48.0338 139.814 47.3315 138.769 47.1349C138.543 47.0787 138.289 47.0787 138.035 47.0787C137.64 46.9664 137.245 46.9102 136.878 46.854C134.704 46.4888 132.305 46.3765 130.781 44.7753C130.781 44.7753 130.809 44.7753 130.837 44.7753Z" fill="#341605"/>
<path d="M61.7631 30.6736C62.7228 30.814 63.5132 31.4601 64.3318 31.9376C65.4892 32.6118 66.703 32.9489 67.9733 33.2579C69.8928 33.7354 70.9654 34.9433 71.6147 36.5163C71.6712 36.4882 71.6994 36.4601 71.7558 36.4039C72.2922 36.123 72.7438 35.814 73.3366 35.6455C74.494 35.3084 75.736 35.477 76.8933 35.7579C78.8975 36.2354 81.1276 38.5107 83.2729 38.0051C83.3011 38.0051 83.3576 38.0051 83.3858 38.0051C81.4945 39.5219 78.954 37.9489 76.8087 37.7242C76.4699 37.6961 76.1312 37.668 75.7925 37.6961C75.4537 37.668 75.115 37.668 74.7762 37.6961C74.3528 37.7242 73.9859 37.8927 73.6189 38.0893C72.885 38.3421 72.1793 38.6792 71.4736 39.0725C70.8808 39.1287 70.2597 38.6511 70.1186 38.0893C70.0904 37.8927 70.0339 37.6961 69.9775 37.5275C69.7799 36.6006 69.4976 35.786 68.5661 35.2803C68.3402 35.168 68.1144 35.0837 67.8886 34.9994C67.5498 34.8028 67.2111 34.6062 66.8724 34.4376C64.8964 33.4545 62.6382 32.6399 61.6784 30.6455C61.7349 30.6736 61.7349 30.6736 61.7631 30.6736Z" fill="#341605"/>
<path d="M15.4125 -0.00023438C16.9369 -0.112594 18.3483 0.702013 19.7597 1.20763C21.7356 1.90988 23.7398 2.07842 25.8005 2.21887C28.9056 2.4155 30.938 3.96044 32.4058 6.23572C32.4623 6.15145 32.547 6.09527 32.6034 6.03909C33.3374 5.42111 33.9866 4.85932 34.8617 4.40988C36.5554 3.56718 38.5596 3.48291 40.4226 3.56718C43.6971 3.73572 47.7619 6.60089 50.9799 5.22449C51.0646 5.1964 51.1211 5.1964 51.1775 5.16831C48.637 8.03347 44.2899 6.37617 40.9025 6.60089C40.3379 6.65707 39.8298 6.71325 39.2935 6.82561C38.7572 6.88179 38.2491 6.96606 37.6845 7.1346C37.0635 7.33123 36.5271 7.66831 35.9908 8.08965C34.8899 8.67954 33.9019 9.40988 32.9422 10.2245C32.0389 10.5054 30.938 9.9155 30.571 9.0728C30.4581 8.7919 30.3452 8.511 30.2323 8.2301C29.6395 6.8537 28.962 5.67392 27.353 5.16831C26.9861 5.11213 26.6191 5.05595 26.2521 4.99977C25.6593 4.74696 25.0665 4.57842 24.4738 4.38179C21.1428 3.45482 17.3603 2.80875 15.2996 0.0278555C15.3278 0.0278555 15.3843 -0.00023438 15.4125 -0.00023438Z" fill="#341605"/>
<path d="M56.7103 17.9495C57.4442 17.6967 58.2628 17.9214 59.025 18.0056C60.0976 18.0899 61.0856 17.9214 62.1301 17.7247C63.6826 17.4158 64.8964 17.9214 65.9126 18.8483C65.9409 18.7922 65.9691 18.7641 65.9973 18.736C66.2796 18.3427 66.5336 17.9776 66.9006 17.6405C67.6345 16.9944 68.5943 16.7135 69.5258 16.5169C71.163 16.1798 73.5624 17.0787 74.9738 16.0113C75.0021 15.9832 75.0303 15.9832 75.0868 15.9551C74.2117 17.6967 71.8123 17.4438 70.1751 17.9776C69.921 18.0618 69.667 18.1742 69.4129 18.2865C69.1589 18.3708 68.9048 18.4832 68.679 18.6517C68.3967 18.8202 68.1709 19.0731 67.945 19.3259C67.4934 19.7472 67.07 20.2528 66.703 20.7865C66.3078 21.0393 65.6868 20.8989 65.3763 20.5337C65.2916 20.3933 65.2069 20.2809 65.094 20.1686C64.6141 19.5787 64.1343 19.045 63.2874 19.0169C63.0898 19.0169 62.8922 19.0169 62.6946 19.045C62.3559 18.9888 62.0454 18.9888 61.7349 18.9888C59.9565 18.9326 58.037 19.1011 56.6538 17.9776C56.6538 17.9776 56.682 17.9495 56.7103 17.9495Z" fill="#341605"/>
<path d="M0.0564562 14.0732C0.846843 14.0732 1.55254 14.4946 2.25825 14.8036C3.24623 15.2249 4.26244 15.3373 5.30688 15.4777C6.88765 15.6463 7.87564 16.489 8.58134 17.6968C8.60957 17.6687 8.6378 17.6407 8.66602 17.5845C9.06122 17.3036 9.39995 16.9946 9.8516 16.8261C10.7549 16.4328 11.7429 16.4328 12.7026 16.5452C14.3681 16.7137 16.3723 18.2867 18.0377 17.6687C18.066 17.6687 18.0942 17.6687 18.1224 17.6687C16.7675 19.0732 14.5939 18.0901 12.8438 18.1182C12.5615 18.1182 12.2792 18.1463 12.0252 18.2025C11.7711 18.2025 11.4888 18.2586 11.2066 18.3148C10.9243 18.3991 10.6138 18.5395 10.3597 18.7362C9.79515 19.0171 9.25881 19.3541 8.75071 19.7474C8.29906 19.8598 7.7345 19.5508 7.56513 19.1013C7.50867 18.9609 7.45222 18.8204 7.39576 18.68C7.14171 17.9777 6.8312 17.3317 6.01258 17.0508C5.84321 16.9946 5.64562 16.9384 5.44802 16.9103C5.16574 16.7699 4.85523 16.6575 4.54472 16.5732C2.87927 15.9553 0.987983 15.562 0 14.1013C0.0282281 14.0732 0.0282281 14.0732 0.0564562 14.0732Z" fill="#341605"/>
<path d="M196.637 13.1179C198.02 13.0898 199.234 13.9044 200.476 14.3819C202.198 15.0842 203.976 15.337 205.811 15.5617C208.577 15.8988 210.299 17.3314 211.485 19.41C211.541 19.3538 211.626 19.2977 211.682 19.2696C212.36 18.764 212.981 18.2583 213.743 17.9213C215.296 17.2471 217.074 17.2752 218.739 17.4437C221.647 17.7246 225.147 20.4774 228.055 19.41C228.111 19.3819 228.168 19.3819 228.252 19.3819C225.881 21.8258 222.07 20.1123 219.05 20.1685C218.542 20.1685 218.09 20.2246 217.61 20.2808C217.13 20.3089 216.679 20.3651 216.171 20.4774C215.606 20.6179 215.098 20.8988 214.618 21.2359C213.63 21.7134 212.699 22.3033 211.824 23.0055C211.005 23.2022 210.045 22.6404 209.735 21.8819C209.678 21.6291 209.565 21.3763 209.452 21.1235C209.001 19.8595 208.464 18.7921 207.053 18.2583C206.743 18.2022 206.404 18.1179 206.065 18.0617C205.557 17.8089 205.049 17.6404 204.513 17.4437C201.577 16.4325 198.274 15.7022 196.58 13.1179C196.609 13.146 196.609 13.1179 196.637 13.1179Z" fill="#341605"/>
<path d="M232.571 31.0112C233.249 30.8146 233.954 31.0393 234.632 31.1516C235.592 31.2921 236.495 31.1797 237.426 31.0674C238.838 30.8707 239.882 31.3763 240.729 32.2471C240.729 32.219 240.786 32.1629 240.786 32.1348C241.068 31.7977 241.294 31.4887 241.632 31.2078C242.31 30.6741 243.185 30.4494 244.032 30.337C245.5 30.1123 247.589 31.0393 248.887 30.1404C248.915 30.1123 248.944 30.1123 248.972 30.1123C248.125 31.6292 246.008 31.264 244.512 31.6853C244.286 31.7696 244.032 31.8258 243.834 31.9381C243.608 32.0224 243.383 32.1067 243.157 32.219C242.903 32.3595 242.677 32.5561 242.479 32.7808C242.056 33.146 241.661 33.5674 241.322 34.0168C240.955 34.2134 240.39 34.0449 240.136 33.7078C240.08 33.5955 239.995 33.455 239.911 33.3707C239.515 32.8089 239.12 32.3314 238.358 32.2471C238.189 32.2471 238.019 32.2471 237.85 32.2471C237.568 32.191 237.285 32.1629 237.003 32.1348C235.422 32.0224 233.7 32.0505 232.515 31.0112C232.543 31.0393 232.571 31.0112 232.571 31.0112Z" fill="#341605"/>
<path d="M182.325 24.9439C183.003 24.972 183.624 25.3933 184.245 25.7023C185.092 26.1237 186.023 26.2922 186.926 26.4326C188.338 26.6574 189.185 27.4439 189.749 28.5394C189.777 28.5113 189.806 28.4832 189.834 28.4832C190.201 28.2304 190.511 28.0057 190.935 27.8371C191.753 27.5281 192.657 27.5843 193.504 27.7248C194.971 27.9495 196.693 29.4383 198.218 28.9607C198.246 28.9607 198.274 28.9607 198.302 28.9607C197.032 30.1405 195.112 29.1854 193.56 29.1293C193.306 29.1293 193.052 29.1293 192.826 29.1574C192.6 29.1574 192.346 29.1854 192.092 29.2416C191.81 29.2978 191.528 29.4383 191.273 29.5787C190.765 29.8034 190.257 30.0843 189.777 30.3933C189.354 30.4776 188.902 30.1686 188.761 29.7753C188.733 29.6349 188.705 29.4944 188.648 29.354C188.451 28.7079 188.197 28.1461 187.491 27.8371C187.322 27.781 187.152 27.7248 186.983 27.6686C186.729 27.5281 186.475 27.4158 186.192 27.3034C184.725 26.7135 183.059 26.2641 182.24 24.8877C182.297 24.9439 182.297 24.9439 182.325 24.9439Z" fill="#341605"/>
<path d="M147.351 5.70205C148.452 5.5616 149.496 6.03913 150.54 6.32003C151.98 6.71329 153.42 6.71329 154.916 6.6852C157.146 6.65711 158.698 7.64025 159.884 9.1852C159.94 9.12902 159.969 9.07284 160.025 9.04475C160.533 8.56722 160.957 8.11778 161.549 7.75261C162.707 7.05037 164.146 6.88183 165.473 6.82565C167.816 6.76947 170.893 8.56722 173.123 7.41554C173.151 7.38745 173.208 7.38745 173.264 7.38745C171.627 9.57846 168.409 8.6234 165.981 8.98857C165.586 9.04475 165.219 9.12902 164.852 9.24138C164.457 9.26947 164.09 9.38183 163.723 9.52228C163.271 9.69082 162.904 9.97172 162.566 10.3088C161.832 10.7863 161.154 11.3762 160.505 12.0223C159.884 12.2751 159.065 11.9099 158.727 11.3481C158.642 11.1515 158.557 10.9549 158.444 10.7582C157.936 9.80318 157.4 8.98857 156.214 8.73576C155.932 8.67958 155.678 8.65149 155.396 8.65149C154.972 8.51104 154.521 8.42677 154.097 8.31441C151.67 7.83688 148.931 7.58407 147.294 5.73014C147.294 5.70205 147.322 5.70205 147.351 5.70205Z" fill="#341605"/>
<path d="M177.95 16.1516C178.458 15.9269 179.051 16.0392 179.615 16.0392C180.378 16.0392 181.111 15.8426 181.817 15.6741C182.918 15.3651 183.821 15.646 184.583 16.264C184.612 16.2359 184.612 16.2078 184.64 16.1797C184.809 15.8988 184.979 15.6179 185.233 15.3651C185.713 14.8595 186.39 14.6067 187.039 14.41C188.197 14.0729 189.947 14.5786 190.907 13.7078C190.935 13.7078 190.963 13.6797 190.963 13.6797C190.427 14.9718 188.705 14.9156 187.576 15.3932C187.378 15.4774 187.209 15.5617 187.039 15.6741C186.87 15.7583 186.672 15.8426 186.531 15.955C186.334 16.0954 186.193 16.292 186.051 16.4887C185.741 16.8258 185.487 17.1909 185.261 17.5842C184.979 17.7808 184.527 17.7246 184.301 17.4718C184.245 17.3876 184.16 17.3033 184.075 17.219C183.708 16.8258 183.313 16.4887 182.692 16.5168C182.551 16.5168 182.41 16.5449 182.297 16.5729C182.043 16.5729 181.817 16.5729 181.591 16.5729C180.321 16.6291 178.938 16.8819 177.893 16.1516C177.922 16.1516 177.922 16.1516 177.95 16.1516Z" fill="#341605"/>
<path d="M137.189 16.6567C137.753 16.6005 138.289 16.8814 138.798 17.05C139.531 17.2747 140.265 17.3309 141.028 17.359C142.157 17.3871 142.919 17.9208 143.483 18.7354C143.512 18.7073 143.54 18.6792 143.568 18.6792C143.822 18.4545 144.048 18.2298 144.387 18.0612C145.008 17.7241 145.742 17.696 146.419 17.696C147.605 17.7241 149.157 18.7354 150.315 18.1736C150.343 18.1736 150.371 18.1736 150.399 18.1455C149.496 19.2129 147.887 18.6792 146.645 18.7916C146.447 18.8196 146.25 18.8477 146.052 18.9039C145.855 18.932 145.657 18.9601 145.459 19.0444C145.234 19.1286 145.036 19.241 144.838 19.4095C144.443 19.6342 144.104 19.9151 143.737 20.2241C143.427 20.3365 143.003 20.1399 142.862 19.8309C142.806 19.7185 142.778 19.6342 142.721 19.5219C142.495 19.0163 142.241 18.5949 141.649 18.4264C141.507 18.3983 141.394 18.3702 141.225 18.3702C140.999 18.2859 140.802 18.2298 140.576 18.1736C139.334 17.8646 137.951 17.668 137.16 16.6848L137.189 16.6567Z" fill="#341605"/>
</g>
<defs>
<clipPath id="clip0_124_40778">
<rect width="249" height="50" fill="white"/>
</clipPath>
</defs>
</svg>
